<svg width="22" height="22" viewBox="0 0 22 22" fill="none" xmlns="http://www.w3.org/2000/svg">
<path fill-rule="evenodd" clip-rule="evenodd" d="M3.7152e-05 0.000427246H21.493V21.4942H3.7152e-05V0.000427246Z" fill="none"/>
<path fill-rule="evenodd" clip-rule="evenodd" d="M5.10844 18.6754C5.68844 18.6754 6.23544 18.8954 6.81444 19.1284C10.3614 20.7684 14.5564 20.0224 17.2894 17.2904C20.8954 13.6824 20.8954 7.81343 17.2894 4.20743C15.5434 2.46143 13.2214 1.50043 10.7494 1.50043C8.27644 1.50043 5.95344 2.46243 4.20844 4.20843C1.47444 6.94043 0.730437 11.1354 2.35544 14.6484C2.58944 15.2274 2.81544 15.7914 2.81544 16.3774C2.81544 16.9624 2.61444 17.5514 2.43744 18.0714C2.29144 18.4994 2.07044 19.1454 2.21244 19.2874C2.35144 19.4314 3.00144 19.2044 3.43044 19.0574C3.94544 18.8814 4.52944 18.6794 5.10844 18.6754ZM10.7244 21.4944C9.19644 21.4944 7.65844 21.1714 6.21944 20.5054C5.79544 20.3354 5.39844 20.1754 5.11344 20.1754C4.78544 20.1774 4.34444 20.3294 3.91844 20.4764C3.04444 20.7764 1.95644 21.1504 1.15144 20.3484C0.349437 19.5454 0.719437 18.4604 1.01744 17.5874C1.16444 17.1574 1.31544 16.7134 1.31544 16.3774C1.31544 16.1014 1.18244 15.7494 0.978437 15.2424C-0.894563 11.1974 -0.0285628 6.32243 3.14844 3.14743C5.17644 1.11843 7.87544 0.000427246 10.7484 0.000427246C13.6214 0.000427246 16.3214 1.11743 18.3494 3.14643C22.5414 7.33843 22.5414 14.1584 18.3494 18.3504C16.2944 20.4064 13.5274 21.4944 10.7244 21.4944Z" fill="black"/>
<path fill-rule="evenodd" clip-rule="evenodd" d="M14.6963 12.1631C14.1443 12.1631 13.6923 11.7161 13.6923 11.1631C13.6923 10.6101 14.1353 10.1631 14.6873 10.1631H14.6963C15.2483 10.1631 15.6963 10.6101 15.6963 11.1631C15.6963 11.7161 15.2483 12.1631 14.6963 12.1631Z" fill="black"/>
<path fill-rule="evenodd" clip-rule="evenodd" d="M10.6875 12.1631C10.1355 12.1631 9.68354 11.7161 9.68354 11.1631C9.68354 10.6101 10.1255 10.1631 10.6785 10.1631H10.6875C11.2395 10.1631 11.6875 10.6101 11.6875 11.1631C11.6875 11.7161 11.2395 12.1631 10.6875 12.1631Z" fill="black"/>
<path fill-rule="evenodd" clip-rule="evenodd" d="M6.67834 12.1631C6.12634 12.1631 5.67434 11.7161 5.67434 11.1631C5.67434 10.6101 6.11734 10.1631 6.66934 10.1631H6.67834C7.23034 10.1631 7.67834 10.6101 7.67834 11.1631C7.67834 11.7161 7.23034 12.1631 6.67834 12.1631Z" fill="black"/>
</svg>
